{"title":"Chinese Zodiac 2012 HDTS NEW READNFO XviD-DEYA","uid":7991999,"size":1825165615,"categoryP":"video","categoryS":"movies","magnet":"?xt=urn:btih:092c55a08f85c4c8256dd73e2e545a15fa56a554&amp;dn=Chinese+Zodiac+2012+HDTS+NEW+READNFO+XviD-DEYA&amp;tr=udp%3A%2F%2Ftracker.openbittorrent.com%3A80&amp;tr=udp%3A%2F%2Fopen.demonii.com%3A1337&amp;tr=udp%3A%2F%2Ftracker.coppersurfer.tk%3A6969&amp;tr=udp%3A%2F%2Fexodus.desync.com%3A6969","seeders":1,"leechers":0,"uploader":"HeroMaster","files":-1,"time":1357454243,"description":"Chinese Zodiac 2012 HDTS NEW READNFO XviD-DEYA\n\n\nIMDB: http://www.imdb.com/title/tt1424310/\n\n\nGeneral\nComplete name : C:UsersAdminDesktopChinese.Zodiac.2012.HDTS.NEW.XviD-DEYA\nFormat : AVI\nFormat/Info : Audio Video Interleave\nFile size : 1.69 GiB\nDuration : 1h 53mn\nOverall bit rate : 2 135 Kbps\n\nVideo\nID : 0\nFormat : MPEG-4 Visual\nFormat profile : Advanced Simple@L5\nFormat settings, BVOP : 2\nFormat settings, QPel : No\nFormat settings, GMC : No warppoints\nFormat settings, Matrix : Default (H.263)\nMuxing mode : Packed bitstream\nCodec ID : XVID\nCodec ID/Hint : XviD\nDuration : 1h 53mn\nBit rate : 1 999 Kbps\nWidth : 688 pixels\nHeight : 288 pixels\nDisplay aspect ratio : 2.40:1\nFrame rate : 23.976 fps\nColor space : YUV\nChroma subsampling : 4:2:0\nBit depth : 8 bits\nScan type : Progressive\nCompression mode : Lossy\nBits/(Pixel*Frame) : 0.421\nStream size : 1.58 GiB (94%)\nWriting library : XviD 64\n\nAudio\nID : 1\nFormat : AC-3\nFormat/Info : Audio Coding 3\nMode extension : CM (complete main)\nCodec ID : 2000\nDuration : 1h 53mn\nBit rate mode : Constant\nBit rate : 128 Kbps\nChannel(s) : 2 channels\nChannel positions : Front: L R\nSampling rate : 48.0 KHz\nBit depth : 16 bits\nCompression mode : Lossy\nStream size : 104 MiB (6%)\nAlignment : Aligned on interleaves\nInterleave, duration : 64 ms (1.53 video frames)\nInterleave, preload duration : 192 ms\nTitle : Chinese Zodiac.track_2\n\n\nSOURCE: DVDSCR DWR [thx]\n\n\nSUBTiTLES: HC ENGLiSH &amp; CHiNESE WHEN NEEDED AND THOUGH-OUT \n\n\nNOTES: thought i wud do this one again as a different rip from\nthe source dropped much better Q again now .. no jumpy fightin\nscenes and runs nice and smooth plus it was in a mkv container\nthis time and no shite RVMB lol it was tagged dvdscr but im\ngoing with what i believe to be true nd thats a HDTS but very\nclear proply best cam i seen for few years to be honest enjoy.\n\n\nPoster:\n\n &lt;a href=&quot;\nhttp://imgon.net/di-JVPM.jpg&quot; rel=&quot;nofollow&quot; target=&quot;_NEW&quot;&gt;\nhttp://imgon.net/di-JVPM.jpg&lt;/a&gt;\n\n\nScreenshots:\n\n &lt;a href=&quot;\nhttp://imgon.net/di-8XRP.png&quot; rel=&quot;nofollow&quot; target=&quot;_NEW&quot;&gt;\nhttp://imgon.net/di-8XRP.png&lt;/a&gt;\n\n &lt;a href=&quot;\nhttp://imgon.net/di-EDLM.png&quot; rel=&quot;nofollow&quot; target=&quot;_NEW&quot;&gt;\nhttp://imgon.net/di-EDLM.png&lt;/a&gt;\n\n &lt;a href=&quot;\nhttp://imgon.net/di-FKHJ.png&quot; rel=&quot;nofollow&quot; target=&quot;_NEW&quot;&gt;\nhttp://imgon.net/di-FKHJ.png&lt;/a&gt;\n\n\nSEED AND ENJOY!","torrent":{"xt":"urn:btih:092c55a08f85c4c8256dd73e2e545a15fa56a554","amp;dn":"Chinese+Zodiac+2012+HDTS+NEW+READNFO+XviD-DEYA","amp;tr":["udp%3A%2F%2Ftracker.openbittorrent.com%3A80","udp%3A%2F%2Fopen.demonii.com%3A1337","udp%3A%2F%2Ftracker.coppersurfer.tk%3A6969","udp%3A%2F%2Fexodus.desync.com%3A6969"],"infoHash":"092c55a08f85c4c8256dd73e2e545a15fa56a554","infoHashBuffer":{"type":"Buffer","data":[9,44,85,160,143,133,196,200,37,109,215,62,46,84,90,21,250,86,165,84]},"announce":[],"urlList":[]}}